<svg xmlns="http://www.w3.org/2000/svg" viewBox="0 0 80 80" fill="none">
  <circle cx="40" cy="40" r="38" stroke="#1F4E79" stroke-width="2.5" fill="#0B1520"/>
  <circle cx="40" cy="40" r="34" stroke="#00C2FF" stroke-width="1" fill="none" opacity="0.3"/>
  <!-- Tower Structure -->
  <line x1="30" y1="62" x2="38" y2="24" stroke="#4B2E83" stroke-width="2.5"/>
  <line x1="50" y1="62" x2="42" y2="24" stroke="#4B2E83" stroke-width="2.5"/>
  <!-- Beams -->
  <line x1="32" y1="52" x2="48" y2="52" stroke="#1F4E79" stroke-width="1.5"/>
  <line x1="34" y1="40" x2="46" y2="40" stroke="#1F4E79" stroke-width="1.5"/>
  <line x1="36" y1="28" x2="44" y2="28" stroke="#1F4E79" stroke-width="1.5"/>
  <!-- Cross braces -->
  <line x1="30" y1="62" x2="48" y2="52" stroke="#1F4E79" stroke-width="1" opacity="0.6"/>
  <line x1="50" y1="62" x2="32" y2="52" stroke="#1F4E79" stroke-width="1" opacity="0.6"/>
  <line x1="32" y1="52" x2="46" y2="40" stroke="#1F4E79" stroke-width="1" opacity="0.6"/>
  <line x1="48" y1="52" x2="34" y2="40" stroke="#1F4E79" stroke-width="1" opacity="0.6"/>
  <!-- Antenna and Tip -->
  <line x1="40" y1="24" x2="40" y2="14" stroke="#00C2FF" stroke-width="2"/>
  <circle cx="40" cy="14" r="2.5" fill="#F59E0B"/>
  <!-- Waves -->
  <path d="M34 10 A 5 5 0 0 0 34 18" stroke="#00C2FF" stroke-width="1.5" fill="none" opacity="0.6" stroke-linecap="round"/>
  <path d="M30 6 A 10 10 0 0 0 30 22" stroke="#00C2FF" stroke-width="1.5" fill="none" opacity="0.3" stroke-linecap="round"/>
  <path d="M46 10 A 5 5 0 0 1 46 18" stroke="#00C2FF" stroke-width="1.5" fill="none" opacity="0.6" stroke-linecap="round"/>
  <path d="M50 6 A 10 10 0 0 1 50 22" stroke="#00C2FF" stroke-width="1.5" fill="none" opacity="0.3" stroke-linecap="round"/>
</svg>
